<svg width="112" height="112" viewBox="0 0 112 112" fill="none" xmlns="http://www.w3.org/2000/svg">
<g clip-path="url(#clip0_209_69)">
<path fill-rule="evenodd" clip-rule="evenodd" d="M55.6183 109.468C85.2062 109.468 109.192 85.4827 109.192 55.8947C109.192 26.3068 85.2062 2.32105 55.6183 2.32105C26.0304 2.32105 2.04463 26.3068 2.04463 55.8947C2.04463 85.4827 26.0304 109.468 55.6183 109.468ZM111.039 55.8947C111.039 86.5029 86.2265 111.316 55.6183 111.316C25.0101 111.316 0.197266 86.5029 0.197266 55.8947C0.197266 25.2865 25.0101 0.473686 55.6183 0.473686C86.2265 0.473686 111.039 25.2865 111.039 55.8947Z" fill="#FFF308" fill-opacity="0.2"/>
<path fill-rule="evenodd" clip-rule="evenodd" d="M55.3104 102.079C80.9872 102.079 101.802 81.2637 101.802 55.5868C101.802 29.91 80.9872 9.09474 55.3104 9.09474C29.6335 9.09474 8.81826 29.91 8.81826 55.5868C8.81826 81.2637 29.6335 102.079 55.3104 102.079ZM104.266 55.5868C104.266 82.6241 82.3476 104.542 55.3104 104.542C28.2731 104.542 6.3551 82.6241 6.3551 55.5868C6.3551 28.5496 28.2731 6.63158 55.3104 6.63158C82.3476 6.63158 104.266 28.5496 104.266 55.5868Z" fill="#FFF308" fill-opacity="0.6"/>
<path fill-rule="evenodd" clip-rule="evenodd" d="M55.3104 97.1526C78.2666 97.1526 96.8762 78.543 96.8762 55.5869C96.8762 32.6307 78.2666 14.0211 55.3104 14.0211C32.3543 14.0211 13.7446 32.6307 13.7446 55.5869C13.7446 78.543 32.3543 97.1526 55.3104 97.1526Z" fill="#FFEC65"/>
</g>
<defs>
<clipPath id="clip0_209_69">
<rect width="110.842" height="110.842" fill="white" transform="translate(0.197266 0.473686)"/>
</clipPath>
</defs>
</svg>
