<svg width="100" height="100" viewBox="0 0 100 100" fill="none" xmlns="http://www.w3.org/2000/svg">
<path d="M87.7976 83.7373C89.327 82.161 87.8493 79.6585 85.6586 79.8277C84.3295 79.9304 82.9863 79.9827 81.6309 79.9827C53.1739 79.9827 30.1049 56.9319 30.1049 28.4973C30.1049 19.7517 32.2872 11.5154 36.1373 4.30243C37.173 2.36222 35.4661 0.00552614 33.408 0.784285C14.2241 8.04319 0.582886 26.5958 0.582886 48.337C0.582886 76.4046 23.318 99.1579 51.3632 99.1579C65.656 99.1579 78.5696 93.2482 87.7976 83.7373Z" fill="#303030" fill-opacity="0.7"/>
<path fill-rule="evenodd" clip-rule="evenodd" d="M66.8965 15.8825C66.65 15.5309 66.3311 15.0106 65.3669 13.6609C65.387 13.681 60.7516 7.72595 60.7516 7.72595C60.1813 6.99323 60.3256 6.87107 61.0678 7.44834C61.0678 7.44834 66.9806 12.0472 66.9806 12.0472C68.3066 12.9943 68.8403 13.3271 69.1966 13.5768C69.5482 13.3303 70.0685 13.0113 71.4183 12.0472C71.3982 12.0673 77.3532 7.43185 77.3532 7.43185C78.0859 6.86156 78.2081 7.00588 77.6308 7.74808C77.6308 7.74808 73.032 13.6609 73.032 13.6609C72.0848 14.9869 71.7521 15.5206 71.5024 15.8769C71.7489 16.2285 72.0679 16.7488 73.032 18.0985C73.0119 18.0784 77.6473 24.0335 77.6473 24.0335C78.2176 24.7662 78.0733 24.8883 77.3311 24.3111C77.3311 24.3111 71.4183 19.7122 71.4183 19.7122C70.0923 18.7651 69.5586 18.4323 69.2023 18.1826C68.8507 18.4291 68.3304 18.7481 66.9806 19.7122C67.0007 19.6921 61.0457 24.3275 61.0457 24.3275C60.313 24.8978 60.1908 24.7535 60.7681 24.0113C60.7681 24.0113 65.3669 18.0985 65.3669 18.0985C66.3141 16.7725 66.6468 16.2388 66.8965 15.8825V15.8825Z" fill="white"/>
<path fill-rule="evenodd" clip-rule="evenodd" d="M93.2149 47.0995C93.2243 47.1089 91.0635 44.333 91.0635 44.333C90.7956 43.9888 90.8616 43.93 91.2081 44.1995C91.2081 44.1995 93.9682 46.3463 93.9682 46.3463C94.5872 46.7884 94.8363 46.9437 95.0026 47.0603C95.1667 46.9452 95.4096 46.7963 96.0397 46.3463C96.0303 46.3556 98.8062 44.1949 98.8062 44.1949C99.1504 43.927 99.2092 43.993 98.9397 44.3394C98.9397 44.3394 96.793 47.0995 96.793 47.0995C96.3508 47.7185 96.1955 47.9677 96.079 48.134C96.194 48.2981 96.3429 48.541 96.793 49.1711C96.7836 49.1617 98.9444 51.9376 98.9444 51.9376C99.2123 52.2818 99.1463 52.3406 98.7998 52.0711C98.7998 52.0711 96.0397 49.9243 96.0397 49.9243C95.4207 49.4822 95.1716 49.3269 95.0053 49.2103C94.8411 49.3254 94.5983 49.4743 93.9682 49.9243C93.9776 49.915 91.2017 52.0757 91.2017 52.0757C90.8575 52.3436 90.7987 52.2776 91.0682 51.9312C91.0682 51.9312 93.2149 49.1711 93.2149 49.1711C93.657 48.5521 93.8124 48.3029 93.9289 48.1366C93.8139 47.9725 93.665 47.7296 93.2149 47.0995Z" fill="white"/>
</svg>
