<svg width="124" height="112" viewBox="0 0 124 112" fill="none" xmlns="http://www.w3.org/2000/svg">
<g clip-path="url(#clip0_209_103)">
<path fill-rule="evenodd" clip-rule="evenodd" d="M61.8091 109.468C91.397 109.468 115.383 85.4827 115.383 55.8947C115.383 26.3068 91.397 2.32105 61.8091 2.32105C32.2212 2.32105 8.23543 26.3068 8.23543 55.8947C8.23543 85.4827 32.2212 109.468 61.8091 109.468ZM117.23 55.8947C117.23 86.5029 92.4173 111.316 61.8091 111.316C31.2009 111.316 6.38806 86.5029 6.38806 55.8947C6.38806 25.2865 31.2009 0.473686 61.8091 0.473686C92.4173 0.473686 117.23 25.2865 117.23 55.8947Z" fill="#FFF308" fill-opacity="0.2"/>
<path fill-rule="evenodd" clip-rule="evenodd" d="M61.5012 102.079C87.178 102.079 107.993 81.2637 107.993 55.5868C107.993 29.91 87.178 9.09474 61.5012 9.09474C35.8243 9.09474 15.0091 29.91 15.0091 55.5868C15.0091 81.2637 35.8243 102.079 61.5012 102.079ZM110.456 55.5868C110.456 82.6241 88.5384 104.542 61.5012 104.542C34.4639 104.542 12.5459 82.6241 12.5459 55.5868C12.5459 28.5496 34.4639 6.63158 61.5012 6.63158C88.5384 6.63158 110.456 28.5496 110.456 55.5868Z" fill="#FFF308" fill-opacity="0.6"/>
<path fill-rule="evenodd" clip-rule="evenodd" d="M61.5012 97.1526C84.4574 97.1526 103.067 78.543 103.067 55.5869C103.067 32.6307 84.4574 14.0211 61.5012 14.0211C38.5451 14.0211 19.9354 32.6307 19.9354 55.5869C19.9354 78.543 38.5451 97.1526 61.5012 97.1526Z" fill="#FFEC65"/>
</g>
<path d="M116.703 38.2542C116.712 37.9776 116.717 37.6999 116.717 37.4211C116.717 23.8174 105.666 12.7895 92.0342 12.7895C81.2203 12.7895 72.0307 19.7291 68.6933 29.3891C66.2965 28.141 63.5709 27.4353 60.6802 27.4353C51.101 27.4353 43.3354 35.1846 43.3354 44.744C43.3354 54.3033 51.101 62.0526 60.6802 62.0526L92.0674 62.0526H110.713C117.713 62.0526 123.388 56.3896 123.388 49.404C123.388 44.5805 120.683 40.3876 116.703 38.2542Z" fill="white"/>
<path d="M45.3796 82.127C45.3853 81.9558 45.3881 81.7839 45.3881 81.6113C45.3881 73.19 38.5876 66.3632 30.1987 66.3632C23.544 66.3632 17.8888 70.6591 15.835 76.6391C14.3601 75.8665 12.6828 75.4296 10.9039 75.4296C5.009 75.4296 0.230225 80.2268 0.230225 86.1445C0.230225 92.0622 5.009 96.8594 10.9039 96.8594L30.2191 96.8594H41.6934C46.0012 96.8594 49.4934 93.3537 49.4934 89.0293C49.4934 86.0433 47.8284 83.4477 45.3796 82.127Z" fill="white"/>
<defs>
<clipPath id="clip0_209_103">
<rect width="110.842" height="110.842" fill="white" transform="translate(6.38806 0.473686)"/>
</clipPath>
</defs>
</svg>
