<svg width="112" height="100" viewBox="0 0 112 100" fill="none" xmlns="http://www.w3.org/2000/svg">
<path d="M108.317 12.7273C108.321 12.5959 108.324 12.464 108.324 12.3316C108.324 5.86984 103.138 0.631577 96.7416 0.631577C91.6674 0.631577 87.3553 3.9279 85.7893 8.51641C84.6646 7.92353 83.3857 7.58833 82.0293 7.58833C77.5344 7.58833 73.8906 11.2693 73.8906 15.81C73.8906 20.3506 77.5344 24.0316 82.0293 24.0316L96.7571 24.0316H105.506C108.791 24.0316 111.454 21.3416 111.454 18.0235C111.454 15.7323 110.184 13.7407 108.317 12.7273Z" fill="white"/>
<path d="M99.9882 83.7373C101.518 82.161 100.04 79.6585 97.8491 79.8277C96.5201 79.9304 95.1769 79.9827 93.8214 79.9827C65.3644 79.9827 42.2955 56.9319 42.2955 28.4973C42.2955 19.7517 44.4778 11.5154 48.3279 4.30243C49.3635 2.36222 47.6567 0.00552614 45.5986 0.784285C26.4147 8.04319 12.7734 26.5958 12.7734 48.337C12.7734 76.4046 35.5086 99.1579 63.5538 99.1579C77.8466 99.1579 90.7602 93.2482 99.9882 83.7373Z" fill="#303030" fill-opacity="0.7"/>
<path d="M45.761 76.127C45.7666 75.9558 45.7695 75.7839 45.7695 75.6113C45.7695 67.19 38.9689 60.3632 30.58 60.3632C23.9253 60.3632 18.2702 64.6591 16.2164 70.6391C14.7414 69.8665 13.0642 69.4296 11.2853 69.4296C5.39035 69.4296 0.611572 74.2268 0.611572 80.1445C0.611572 86.0622 5.39035 90.8594 11.2853 90.8594L30.6004 90.8594H42.0747C46.3825 90.8594 49.8747 87.3537 49.8747 83.0293C49.8747 80.0433 48.2098 77.4477 45.761 76.127Z" fill="white"/>
</svg>
