<svg width="169" height="109" viewBox="0 0 169 109" fill="none" xmlns="http://www.w3.org/2000/svg">
<path d="M155.599 48.9589C155.616 48.4272 155.625 47.8932 155.625 47.3571C155.625 21.2025 134.504 0 108.45 0C87.7822 0 70.2185 13.3423 63.84 31.9148C59.2591 29.5151 54.0499 28.1583 48.525 28.1583C30.2168 28.1583 15.375 43.0573 15.375 61.4363C15.375 79.8152 30.2168 94.7143 48.525 94.7143L108.45 94.7143C108.471 94.7143 108.492 94.7143 108.514 94.7142H144.15C157.529 94.7142 168.375 83.8265 168.375 70.3957C168.375 61.122 163.204 53.0607 155.599 48.9589Z" fill="#303030" fill-opacity="0.7"/>
<path d="M132.663 65.0273C132.679 64.5242 132.688 64.019 132.688 63.5119C132.688 38.7676 112.705 18.7083 88.0563 18.7083C68.5029 18.7083 51.8863 31.3311 45.8517 48.9022C41.5178 46.6319 36.5895 45.3483 31.3625 45.3483C14.0415 45.3483 0 59.4439 0 76.8318C0 94.2197 14.0415 108.315 31.3625 108.315L88.1164 108.315H121.831C134.489 108.315 144.75 98.0147 144.75 85.3082C144.75 76.5345 139.858 68.9079 132.663 65.0273Z" fill="white"/>
</svg>
