<svg width="112" height="69" viewBox="0 0 112 69" fill="none" xmlns="http://www.w3.org/2000/svg">
<path d="M102.547 35.7318C102.559 35.3466 102.566 34.9598 102.566 34.5714C102.566 15.6235 87.2645 0.263153 68.3894 0.263153C53.4164 0.263153 40.6923 9.92907 36.0713 23.3841C32.7526 21.6456 28.9788 20.6627 24.9763 20.6627C11.7127 20.6627 0.960449 31.4564 0.960449 44.7712C0.960449 58.0859 11.7127 68.8797 24.9763 68.8797L68.3894 68.8797C68.4048 68.8797 68.4201 68.8797 68.4354 68.8797H94.2526C103.945 68.8797 111.803 60.9919 111.803 51.2619C111.803 44.5435 108.056 38.7034 102.547 35.7318Z" fill="#303030" fill-opacity="0.7"/>
</svg>
