<svg width="169" height="167" viewBox="0 0 169 167" fill="none" xmlns="http://www.w3.org/2000/svg">
<path d="M156.224 48.9589C156.241 48.4272 156.25 47.8932 156.25 47.3571C156.25 21.2025 135.129 0 109.075 0C88.4072 0 70.8435 13.3423 64.465 31.9148C59.8841 29.5151 54.6749 28.1583 49.15 28.1583C30.8418 28.1583 16 43.0573 16 61.4363C16 79.8152 30.8418 94.7143 49.15 94.7143L109.075 94.7143C109.096 94.7143 109.117 94.7143 109.139 94.7142H144.775C158.154 94.7142 169 83.8265 169 70.3957C169 61.122 163.829 53.0607 156.224 48.9589Z" fill="#303030" fill-opacity="0.7"/>
<path d="M131.975 64.522C131.992 64.0167 132 63.5094 132 63C132 38.1472 112.122 18 87.6001 18C68.1479 18 51.6175 30.6782 45.6141 48.3263C41.3027 46.046 36.3999 44.7567 31.2 44.7567C13.9687 44.7567 0 58.9142 0 76.3784C0 93.8425 13.9687 108 31.2 108L87.6001 108C87.62 108 87.6399 108 87.6598 108H121.2C133.792 108 144 97.6541 144 84.8918C144 76.0797 139.133 68.4197 131.975 64.522Z" fill="white"/>
<path fill-rule="evenodd" clip-rule="evenodd" d="M68.3218 119.383C69.0044 117.282 71.2611 116.132 73.3621 116.815C75.4631 117.498 76.6129 119.754 75.9302 121.855L62.301 163.802C61.6183 165.903 59.3617 167.053 57.2607 166.37C55.1596 165.687 54.0098 163.431 54.6925 161.33L68.3218 119.383ZM84.4276 119.383C85.1102 117.282 87.3668 116.132 89.4679 116.815C91.5689 117.498 92.7187 119.754 92.036 121.855L81.7002 153.666C81.0175 155.767 78.7609 156.916 76.6599 156.234C74.5589 155.551 73.4091 153.295 74.0918 151.194L84.4276 119.383ZM57.2563 116.815C55.1553 116.132 52.8987 117.282 52.216 119.383L45.1737 141.057C44.491 143.158 45.6408 145.415 47.7418 146.098C49.8428 146.78 52.0995 145.63 52.7821 143.529L59.8244 121.855C60.5071 119.754 59.3573 117.498 57.2563 116.815Z" fill="#B4F5F2"/>
</svg>
