<svg width="112" height="106" viewBox="0 0 112 106" fill="none" xmlns="http://www.w3.org/2000/svg">
<path d="M102.547 35.8371C102.559 35.4519 102.566 35.065 102.566 34.6767C102.566 15.7288 87.2645 0.368423 68.3894 0.368423C53.4164 0.368423 40.6923 10.0343 36.0713 23.4894C32.7526 21.7509 28.9788 20.7679 24.9763 20.7679C11.7127 20.7679 0.960449 31.5617 0.960449 44.8764C0.960449 58.1912 11.7127 68.985 24.9763 68.985L68.3894 68.985C68.4048 68.985 68.4201 68.985 68.4354 68.9849H94.2526C103.945 68.9849 111.803 61.0972 111.803 51.3672C111.803 44.6488 108.056 38.8087 102.547 35.8371Z" fill="white"/>
<path fill-rule="evenodd" clip-rule="evenodd" d="M17.5867 77.3421C17.5867 75.6417 18.9652 74.2632 20.6656 74.2632H91.4814C93.1819 74.2632 94.5604 75.6417 94.5604 77.3421C94.5604 79.0426 93.1819 80.4211 91.4814 80.4211H20.6656C18.9652 80.4211 17.5867 79.0426 17.5867 77.3421ZM17.5867 89.6579C17.5867 87.9574 18.9652 86.5789 20.6656 86.5789H91.4814C93.1819 86.5789 94.5604 87.9574 94.5604 89.6579C94.5604 91.3584 93.1819 92.7368 91.4814 92.7368H20.6656C18.9652 92.7368 17.5867 91.3584 17.5867 89.6579ZM20.6656 98.8947C18.9652 98.8947 17.5867 100.273 17.5867 101.974C17.5867 103.674 18.9652 105.053 20.6656 105.053H91.4814C93.1819 105.053 94.5604 103.674 94.5604 101.974C94.5604 100.273 93.1819 98.8947 91.4814 98.8947H20.6656Z" fill="black" fill-opacity="0.4"/>
</svg>
