<svg width="112" height="115" viewBox="0 0 112 115" fill="none" xmlns="http://www.w3.org/2000/svg">
<path d="M101.783 36.1663C101.796 35.7773 101.803 35.3868 101.803 34.9947C101.803 15.8646 86.5013 0.356552 67.6263 0.356552C52.6532 0.356552 39.9291 10.1154 35.3081 23.6998C31.9894 21.9446 28.2156 20.9522 24.2131 20.9522C10.9495 20.9522 0.197266 31.8497 0.197266 45.2925C0.197266 58.7353 10.9495 69.6328 24.2131 69.6328L67.6263 69.6329C67.6416 69.6329 67.6569 69.6328 67.6723 69.6328H93.4894C103.182 69.6328 111.039 61.6692 111.039 51.8457C111.039 45.0626 107.293 39.1664 101.783 36.1663Z" fill="white"/>
<path fill-rule="evenodd" clip-rule="evenodd" d="M41.2719 76.4181C39.6547 75.8926 37.9177 76.7777 37.3922 78.3949L26.9013 110.683C26.3758 112.3 27.2608 114.037 28.8781 114.562C30.4953 115.088 32.2323 114.203 32.7578 112.586L43.2487 80.2978C43.7742 78.6806 42.8892 76.9436 41.2719 76.4181ZM78.3299 76.4181C76.7127 75.8926 74.9757 76.7777 74.4502 78.3949L63.9593 110.683C63.4338 112.3 64.3189 114.037 65.9361 114.562C67.5533 115.088 69.2903 114.203 69.8158 112.586L80.3067 80.2978C80.8322 78.6806 79.9472 76.9436 78.3299 76.4181ZM49.7895 78.3949C50.315 76.7777 52.052 75.8926 53.6692 76.4181C55.2864 76.9436 56.1715 78.6806 55.646 80.2978L47.6902 104.783C47.1647 106.401 45.4277 107.286 43.8105 106.76C42.1932 106.235 41.3082 104.498 41.8336 102.881L49.7895 78.3949ZM90.5739 76.4181C88.9566 75.8926 87.2196 76.7777 86.6942 78.3949L78.7383 102.881C78.2128 104.498 79.0979 106.235 80.7151 106.76C82.3324 107.286 84.0694 106.401 84.5948 104.783L92.5507 80.2978C93.0761 78.6806 92.1911 76.9436 90.5739 76.4181ZM24.9951 78.3949C25.5206 76.7777 27.2576 75.8926 28.8748 76.4181C30.4921 76.9436 31.3771 78.6806 30.8516 80.2978L25.4309 96.9811C24.9054 98.5984 23.1684 99.4834 21.5512 98.9579C19.934 98.4325 19.0489 96.6955 19.5744 95.0782L24.9951 78.3949ZM66.0657 76.4181C64.4485 75.8926 62.7115 76.7777 62.186 78.3949L56.7652 95.0782C56.2398 96.6955 57.1248 98.4325 58.742 98.9579C60.3593 99.4834 62.0963 98.5984 62.6217 96.9811L68.0425 80.2978C68.568 78.6806 67.6829 76.9436 66.0657 76.4181Z" fill="#B4F5F2"/>
</svg>
