<svg width="112" height="115" viewBox="0 0 112 115" fill="none" xmlns="http://www.w3.org/2000/svg">
<path fill-rule="evenodd" clip-rule="evenodd" d="M102.184 34.9947C102.184 35.3868 102.178 35.7773 102.165 36.1663C107.675 39.1664 111.421 45.0626 111.421 51.8457C111.421 60.3947 105.47 67.5351 97.5377 69.244L103.037 58.9882C103.95 57.4687 102.855 55.5343 101.083 55.5343H100.708H95.7182C95.0191 55.5343 94.5358 54.8354 94.7826 54.1813L99.0129 42.9703C99.6852 41.2458 98.4132 39.3847 96.5623 39.3847H96.4181H77.7197H77.6378C76.4288 39.3847 75.3679 40.1905 75.0434 41.3552L67.4255 68.6976L67.1649 69.6328L24.5947 69.6328C11.3311 69.6328 0.578857 58.7353 0.578857 45.2925C0.578857 31.8497 11.3311 20.9522 24.5947 20.9522C28.5972 20.9522 32.371 21.9446 35.6897 23.6998C40.3107 10.1154 53.0348 0.356552 68.0079 0.356552C86.8829 0.356552 102.184 15.8646 102.184 34.9947Z" fill="white"/>
<path fill-rule="evenodd" clip-rule="evenodd" d="M25.3767 78.3949C25.9022 76.7777 27.6392 75.8927 29.2564 76.4181C30.8736 76.9436 31.7587 78.6806 31.2332 80.2978L25.8125 96.9811C25.287 98.5984 23.55 99.4834 21.9328 98.958C20.3155 98.4325 19.4305 96.6955 19.956 95.0783L25.3767 78.3949ZM41.6536 76.4181C40.0363 75.8927 38.2993 76.7777 37.7739 78.3949L27.2829 110.683C26.7574 112.3 27.6425 114.037 29.2597 114.562C30.877 115.088 32.614 114.203 33.1394 112.586L43.6304 80.2978C44.1558 78.6806 43.2708 76.9436 41.6536 76.4181ZM54.0507 76.4181C52.4335 75.8927 50.6965 76.7777 50.171 78.3949L42.2152 102.881C41.6897 104.498 42.5748 106.235 44.192 106.76C45.8092 107.286 47.5462 106.401 48.0717 104.783L56.0275 80.2978C56.553 78.6806 55.668 76.9436 54.0507 76.4181ZM66.4473 76.4181C64.83 75.8927 63.093 76.7777 62.5676 78.3949L57.1468 95.0783C56.6214 96.6955 57.5064 98.4325 59.1236 98.958C60.7409 99.4834 62.4779 98.5984 63.0033 96.9811L68.4241 80.2978C68.9496 78.6806 68.0645 76.9436 66.4473 76.4181Z" fill="#B4F5F2"/>
<path fill-rule="evenodd" clip-rule="evenodd" d="M79.2334 43.0322C78.6762 43.0322 78.1884 43.4063 78.0439 43.9445L71.5719 68.0506C71.3618 68.8329 71.9513 69.6015 72.7613 69.6015H81.4497C82.1846 69.6015 82.756 70.2411 82.6735 70.9714L80.349 91.5413C80.195 92.9039 82.0479 93.4604 82.6703 92.2385L98.8415 60.485C99.2587 59.6656 98.6635 58.6945 97.744 58.6945H90.6415C89.7682 58.6945 89.1724 57.8107 89.4998 57.0011L94.4647 44.7256C94.7921 43.916 94.1963 43.0322 93.3229 43.0322H79.2334Z" fill="#FFF686"/>
</svg>
