<svg width="189" height="182" viewBox="0 0 189 182" fill="none" xmlns="http://www.w3.org/2000/svg">
<path d="M176.224 56.9589C176.241 56.4272 176.25 55.8932 176.25 55.3571C176.25 29.2025 155.129 8 129.075 8C108.407 8 90.8435 21.3423 84.465 39.9148C79.8841 37.5151 74.6749 36.1583 69.15 36.1583C50.8418 36.1583 36 51.0573 36 69.4363C36 87.8152 50.8418 102.714 69.15 102.714L129.075 102.714C129.096 102.714 129.117 102.714 129.139 102.714H164.775C178.154 102.714 189 91.8265 189 78.3957C189 69.122 183.829 61.0607 176.224 56.9589Z" fill="#303030" fill-opacity="0.7"/>
<path d="M147.016 77.2052C147.031 76.7577 147.039 76.3083 147.039 75.8571C147.039 53.8446 129.263 36 107.335 36C89.94 36 75.1579 47.2292 69.7895 62.8604C65.9341 60.8407 61.5499 59.6988 56.9 59.6988C41.4913 59.6988 29 72.2383 29 87.7066C29 103.175 41.4913 115.714 56.9 115.714L107.335 115.714C107.352 115.714 107.37 115.714 107.388 115.714H137.381C148.641 115.714 157.769 106.551 157.769 95.2471C157.769 87.442 153.417 80.6574 147.016 77.2052Z" fill="white"/>
<path fill-rule="evenodd" clip-rule="evenodd" d="M147.875 72.975C147.875 73.4578 147.867 73.9388 147.851 74.4177C154.637 78.1123 159.25 85.3734 159.25 93.7266C159.25 104.255 151.922 113.048 142.153 115.152L148.925 102.522C150.049 100.651 148.702 98.2691 146.519 98.2691H146.058H139.578C138.879 98.2691 138.395 97.5702 138.642 96.9161L143.97 82.7968C144.798 80.6731 143.231 78.3812 140.952 78.3812H140.774H117.747H117.647C116.158 78.3812 114.851 79.3734 114.452 80.8077L105.07 114.479L104.75 115.631L52.325 115.631C35.9912 115.631 22.75 102.211 22.75 85.6565C22.75 69.102 35.9912 55.6819 52.325 55.6819C57.2541 55.6819 61.9015 56.904 65.9884 59.0655C71.6791 42.3366 87.3486 30.3187 105.788 30.3187C129.032 30.3187 147.875 49.4166 147.875 72.975Z" fill="white"/>
<path fill-rule="evenodd" clip-rule="evenodd" d="M53.2879 126.422C53.935 124.43 56.0741 123.34 58.0657 123.987C60.0573 124.634 61.1472 126.773 60.5001 128.765L53.8246 149.31C53.1775 151.302 51.0384 152.392 49.0468 151.745C47.0552 151.097 45.9653 148.958 46.6124 146.967L53.2879 126.422ZM73.3326 123.987C71.341 123.34 69.2019 124.43 68.5548 126.422L55.6354 166.183C54.9883 168.175 56.0782 170.314 58.0698 170.961C60.0614 171.608 62.2005 170.518 62.8476 168.527L75.767 128.765C76.4141 126.773 75.3242 124.634 73.3326 123.987ZM88.5994 123.987C86.6079 123.34 84.4688 124.43 83.8217 126.422L74.0242 156.575C73.3771 158.567 74.467 160.706 76.4586 161.353C78.4502 162 80.5893 160.91 81.2364 158.918L91.0338 128.765C91.6809 126.773 90.591 124.634 88.5994 123.987ZM103.866 123.987C101.874 123.34 99.7349 124.43 99.0878 126.422L92.4122 146.967C91.7651 148.958 92.8551 151.097 94.8466 151.745C96.8382 152.392 98.9773 151.302 99.6244 149.31L106.3 128.765C106.947 126.773 105.857 124.634 103.866 123.987Z" fill="#B4F5F2"/>
<path fill-rule="evenodd" clip-rule="evenodd" d="M119.612 82.873C118.925 82.873 118.325 83.3337 118.147 83.9964L110.176 113.683C109.918 114.646 110.644 115.593 111.641 115.593H122.341C123.246 115.593 123.95 116.38 123.848 117.28L120.985 142.611C120.796 144.289 123.078 144.974 123.844 143.47L143.758 104.366C144.272 103.357 143.539 102.161 142.407 102.161H133.66C132.585 102.161 131.851 101.072 132.254 100.075L138.369 84.9583C138.772 83.9613 138.038 82.873 136.963 82.873H119.612Z" fill="#FFF686"/>
</svg>
