<svg width="112" height="94" viewBox="0 0 112 94" fill="none" xmlns="http://www.w3.org/2000/svg">
<path fill-rule="evenodd" clip-rule="evenodd" d="M101.803 34.4136C101.803 34.8019 101.796 35.1887 101.783 35.574C107.293 38.5455 111.039 44.3856 111.039 51.104C111.039 60.8341 103.182 68.7218 93.4894 68.7218H67.6723L67.6263 68.7218H66.9274C67.3948 68.3968 70.3172 66.3654 71.0874 65.8567C72.5796 66.8777 74.5862 67.0206 76.2579 66.058C77.9511 65.083 78.8316 63.241 78.6615 61.4172C79.646 60.8396 79.6763 60.8986 79.6763 60.8986C81.9905 59.566 82.7847 56.6059 81.4468 54.2948C80.1095 51.9847 77.1451 51.1873 74.8272 52.522C74.8272 52.522 74.7187 52.6059 73.7777 53.0752C72.2887 52.0732 70.2981 51.9388 68.6379 52.8948C66.9579 53.8622 66.078 55.6833 66.2306 57.4931C65.3682 58.008 61.699 60.235 61.699 60.235C61.699 60.235 61.7088 55.4915 61.7504 54.8407C63.3612 54.0542 64.47 52.4041 64.47 50.4949C64.47 48.5629 63.3319 46.8945 61.6879 46.1199C61.7119 45.2719 61.699 44.9626 61.699 44.9626C61.699 42.2976 59.5257 40.1316 56.8499 40.1316C54.1754 40.1316 52.0008 42.2933 52.0008 44.9626C52.0008 44.9626 52.0127 45.0645 52.0051 46.1224C50.3642 46.8977 49.2299 48.5637 49.2299 50.4949C49.2299 52.4332 50.3754 54.1063 52.0282 54.8775C51.983 56.1476 52.0008 60.235 52.0008 60.235C52.0008 60.235 48.3837 58.1053 47.4725 57.4603C47.6125 55.6613 46.7333 53.8573 45.0619 52.8948C43.3959 51.9355 41.3942 52.0756 39.9028 53.0891C38.9612 52.6154 38.8726 52.522 38.8726 52.522C36.5584 51.1895 33.5909 51.9836 32.253 54.2948C30.9158 56.6048 31.7056 59.5639 34.0235 60.8986C34.0235 60.8986 34.2435 60.898 35.0348 61.4492C34.8772 63.2625 35.757 65.0878 37.4419 66.058C39.1206 67.0246 41.14 66.875 42.6349 65.8405C43.0939 66.2104 46.818 68.3845 47.397 68.7218L24.2131 68.7218C10.9495 68.7218 0.197266 57.9281 0.197266 44.6133C0.197266 31.2985 10.9495 20.5048 24.2131 20.5048C28.2156 20.5048 31.9894 21.4877 35.3081 23.2262C39.9291 9.7712 52.6532 0.105286 67.6263 0.105286C86.5013 0.105286 101.803 15.4656 101.803 34.4136Z" fill="white"/>
<path fill-rule="evenodd" clip-rule="evenodd" d="M54.8369 83.7719V53.0121H54.1681C53.055 53.0121 52.1527 52.1117 52.1527 51.006C52.1527 49.8981 53.0535 49 54.1681 49H54.8369V45.6515C54.8369 44.5464 55.7405 43.6505 56.8501 43.6505C57.9619 43.6505 58.8632 44.5516 58.8632 45.6515V49H59.532C60.6451 49 61.5474 49.9004 61.5474 51.006C61.5474 52.114 60.6466 53.0121 59.532 53.0121H58.8632V83.7719H59.532C60.6451 83.7719 61.5474 84.6723 61.5474 85.7779C61.5474 86.8859 60.6466 87.784 59.532 87.784H58.8632V91.1325C58.8632 92.2376 57.9596 93.1335 56.8501 93.1335C55.7382 93.1335 54.8369 92.2324 54.8369 91.1325V87.784H54.1681C53.055 87.784 52.1527 86.8836 52.1527 85.7779C52.1527 84.67 53.0535 83.7719 54.1681 83.7719H54.8369Z" fill="white"/>
<path fill-rule="evenodd" clip-rule="evenodd" d="M44.4903 58.9647L71.223 74.3446L71.5574 73.7675C72.114 72.8069 73.3477 72.4784 74.3086 73.0312C75.2714 73.5852 75.6016 74.8116 75.0443 75.7735L74.7099 76.3507L77.62 78.0249C78.5805 78.5775 78.9073 79.8052 78.3525 80.7628C77.7966 81.7222 76.5628 82.0495 75.6068 81.4995L72.6968 79.8253L72.3624 80.4025C71.8058 81.363 70.5721 81.6915 69.6112 81.1387C68.6483 80.5847 68.3182 79.3583 68.8755 78.3964L69.2099 77.8192L42.4771 62.4394L42.1427 63.0165C41.5862 63.9771 40.3525 64.3056 39.3916 63.7527C38.4287 63.1988 38.0985 61.9723 38.6558 61.0104L38.9902 60.4333L36.0802 58.7591C35.1197 58.2065 34.7929 56.9787 35.3476 56.0212C35.9036 55.0617 37.1374 54.7345 38.0933 55.2844L41.0034 56.9587L41.3378 56.3815C41.8943 55.4209 43.128 55.0925 44.0889 55.6453C45.0518 56.1992 45.382 57.4257 44.8247 58.3876L44.4903 58.9647Z" fill="white"/>
<path fill-rule="evenodd" clip-rule="evenodd" d="M71.223 62.4394L44.4902 77.8193L44.8246 78.3964C45.3812 79.357 45.0498 80.5859 44.0889 81.1387C43.126 81.6927 41.895 81.3644 41.3378 80.4025L41.0034 79.8253L38.0933 81.4995C37.1328 82.0521 35.9024 81.7203 35.3476 80.7628C34.7917 79.8033 35.1242 78.5749 36.0801 78.0249L38.9902 76.3507L38.6558 75.7735C38.0993 74.813 38.4306 73.5841 39.3915 73.0313C40.3544 72.4773 41.5854 72.8056 42.1427 73.7675L42.4771 74.3446L69.2098 58.9648L68.8754 58.3876C68.3189 57.427 68.6503 56.1981 69.6112 55.6453C70.5741 55.0914 71.805 55.4197 72.3623 56.3815L72.6967 56.9587L75.6068 55.2845C76.5673 54.7319 77.7977 55.0637 78.3525 56.0212C78.9084 56.9807 78.5759 58.2091 77.6199 58.7591L74.7099 60.4333L75.0443 61.0105C75.6008 61.971 75.2694 63.1999 74.3085 63.7528C73.3457 64.3067 72.1147 63.9784 71.5574 63.0165L71.223 62.4394Z" fill="white"/>
</svg>
